<svg xmlns="http://www.w3.org/2000/svg" viewBox="0 0 120 120">
  <ellipse cx="60" cy="111" rx="30" ry="6" fill="#000" opacity="0.18"/>
  <path d="M84 96 q22 -2 16 -26 q-2 -8 -8 -6 q6 4 2 14 q-4 12 -18 10z" fill="#f3a85a" stroke="#b56f2c" stroke-width="2"/>
  <g stroke="#c97e34" stroke-width="3"><path d="M88 72h8M86 80h9M88 88h7"/></g>
  <path d="M38 100 q-6 -38 22 -40 q28 2 22 40 z" fill="#f3a85a" stroke="#b56f2c" stroke-width="2"/>
  <circle cx="60" cy="52" r="22" fill="#f3a85a" stroke="#b56f2c" stroke-width="2"/>
  <path d="M44 38 l-4 -16 16 8 z" fill="#f3a85a" stroke="#b56f2c" stroke-width="2"/>
  <path d="M76 38 l4 -16 -16 8 z" fill="#f3a85a" stroke="#b56f2c" stroke-width="2"/>
  <path d="M46 34 l-1 -9 7 5z" fill="#ffd0a8"/><path d="M74 34 l1 -9 -7 5z" fill="#ffd0a8"/>
  <g stroke="#d6863a" stroke-width="3" stroke-linecap="round"><path d="M60 34v8M52 38l3 6M68 38l-3 6"/></g>
  <ellipse cx="52" cy="52" rx="3" ry="4.5" fill="#3a2a14"/><ellipse cx="68" cy="52" rx="3" ry="4.5" fill="#3a2a14"/>
  <path d="M60 58 l-3 3h6z" fill="#e08a8a"/>
  <path d="M60 61 q-3 4 -7 3M60 61 q3 4 7 3" fill="none" stroke="#7a5230" stroke-width="1.4" stroke-linecap="round"/>
  <g stroke="#fff" stroke-width="1" opacity="0.7"><path d="M40 56h-10M40 60h-10M80 56h10M80 60h10"/></g>
  <ellipse cx="50" cy="46" rx="6" ry="8" fill="#fff" opacity="0.22"/>
</svg>
