<svg xmlns="http://www.w3.org/2000/svg" viewBox="0 0 120 120">
  <defs>
    <linearGradient id="ck_r" x1="0" y1="0" x2="1" y2="1"><stop offset="0" stop-color="#f0cf72"/><stop offset="1" stop-color="#a9791f"/></linearGradient>
    <radialGradient id="ck_f" cx="0.4" cy="0.35" r="0.75"><stop offset="0" stop-color="#fff8e8"/><stop offset="1" stop-color="#e9d9b8"/></radialGradient>
  </defs>
  <ellipse cx="60" cy="113" rx="20" ry="4" fill="#000" opacity="0.15"/>
  <circle cx="60" cy="56" r="48" fill="url(#ck_r)" stroke="#7e5612" stroke-width="3"/>
  <circle cx="60" cy="56" r="38" fill="url(#ck_f)" stroke="#caa775" stroke-width="2"/>
  <g stroke="#5a4528" stroke-width="2.4" stroke-linecap="round">
    <path d="M60 24v7M60 81v7M28 56h7M85 56h7"/>
  </g>
  <g stroke="#caa775" stroke-width="1.4"><path d="M60 28v4M60 80v4M32 56h4M84 56h4"/></g>
  <path d="M60 56 L60 34" stroke="#3a2a16" stroke-width="3.5" stroke-linecap="round"/>
  <path d="M60 56 L78 62" stroke="#3a2a16" stroke-width="3" stroke-linecap="round"/>
  <circle cx="60" cy="56" r="4" fill="#7e5612"/>
  <!-- pendulum -->
  <rect x="56" y="100" width="8" height="2" fill="#a9791f"/>
  <circle cx="60" cy="104" r="2" fill="#f0cf72"/>
  <ellipse cx="44" cy="40" rx="10" ry="14" fill="#fff" opacity="0.25"/>
</svg>
