<svg xmlns="http://www.w3.org/2000/svg" viewBox="0 0 120 120">
  <defs>
    <linearGradient id="cc_cup" x1="0" y1="0" x2="0" y2="1"><stop offset="0" stop-color="#ffffff"/><stop offset="1" stop-color="#e9e2d2"/></linearGradient>
    <radialGradient id="cc_cof" cx="0.5" cy="0.4" r="0.7"><stop offset="0" stop-color="#8a5a34"/><stop offset="1" stop-color="#4e2f18"/></radialGradient>
  </defs>
  <ellipse cx="60" cy="106" rx="36" ry="6" fill="#000" opacity="0.18"/>
  <!-- steam -->
  <g fill="none" stroke="#cfc3b0" stroke-width="3" stroke-linecap="round" opacity="0.7">
    <path d="M50 40 q6 -8 0 -16"/><path d="M68 40 q6 -8 0 -16"/>
  </g>
  <!-- saucer -->
  <ellipse cx="60" cy="98" rx="38" ry="9" fill="#f3ecde" stroke="#cbbd9d" stroke-width="2"/>
  <ellipse cx="60" cy="96" rx="24" ry="5" fill="#e2d8c2"/>
  <!-- handle -->
  <path d="M86 64 q18 2 16 18 q-2 12 -16 12" fill="none" stroke="#e9e2d2" stroke-width="7"/>
  <path d="M86 64 q15 2 13 16 q-2 10 -13 11" fill="none" stroke="#cbbd9d" stroke-width="2"/>
  <!-- cup -->
  <path d="M34 56 L86 56 L80 90 q-20 8 -40 0 Z" fill="url(#cc_cup)" stroke="#cbbd9d" stroke-width="2"/>
  <ellipse cx="60" cy="56" rx="26" ry="8" fill="url(#cc_cof)" stroke="#caa775" stroke-width="2.5"/>
  <!-- latte art -->
  <g fill="none" stroke="#e9cda0" stroke-width="1.6" opacity="0.9"><path d="M60 50 q-6 4 0 10 q6 -6 0 -10"/><path d="M54 53h12"/></g>
  <ellipse cx="46" cy="72" rx="3" ry="9" fill="#fff" opacity="0.4"/>
  <rect x="40" y="56" width="46" height="3" fill="#d4af37" opacity="0.85"/>
</svg>
