<svg xmlns="http://www.w3.org/2000/svg" viewBox="0 0 120 120">
  <defs>
    <radialGradient id="pg_b" cx="0.4" cy="0.3" r="0.8"><stop offset="0" stop-color="#5a6472"/><stop offset="1" stop-color="#313846"/></radialGradient>
  </defs>
  <ellipse cx="60" cy="112" rx="28" ry="5" fill="#000" opacity="0.18"/>
  <!-- feet -->
  <path d="M48 104 q-6 6 2 8 h10z" fill="#ffa726" stroke="#c8861f" stroke-width="1.5"/>
  <path d="M72 104 q6 6 -2 8 h-10z" fill="#ffa726" stroke="#c8861f" stroke-width="1.5"/>
  <!-- body -->
  <path d="M34 86 q-4 -52 26 -54 q30 2 26 54 q-4 20 -26 20 q-22 0 -26 -20z" fill="url(#pg_b)" stroke="#222a36" stroke-width="2.5"/>
  <!-- belly -->
  <ellipse cx="60" cy="72" rx="20" ry="28" fill="#fefefe"/>
  <!-- wings -->
  <path d="M34 64 q-8 14 0 30 q8 -2 6 -20z" fill="#3a4250" stroke="#222a36" stroke-width="2"/>
  <path d="M86 64 q8 14 0 30 q-8 -2 -6 -20z" fill="#3a4250" stroke="#222a36" stroke-width="2"/>
  <!-- face -->
  <ellipse cx="51" cy="46" rx="4" ry="5" fill="#1a1a1a"/><ellipse cx="69" cy="46" rx="4" ry="5" fill="#1a1a1a"/>
  <circle cx="52" cy="44" r="1.5" fill="#fff"/><circle cx="70" cy="44" r="1.5" fill="#fff"/>
  <path d="M54 54 l6 -4 6 4 -6 5z" fill="#ffa726" stroke="#c8861f" stroke-width="1.2"/>
  <ellipse cx="46" cy="56" rx="5" ry="4" fill="#ff9eb5" opacity="0.5"/><ellipse cx="74" cy="56" rx="5" ry="4" fill="#ff9eb5" opacity="0.5"/>
  <ellipse cx="48" cy="38" rx="6" ry="8" fill="#fff" opacity="0.18"/>
</svg>
