<svg xmlns="http://www.w3.org/2000/svg" viewBox="0 0 120 120">
  <defs>
    <linearGradient id="un_b" x1="0" y1="0" x2="0" y2="1"><stop offset="0" stop-color="#ffffff"/><stop offset="1" stop-color="#ece6f5"/></linearGradient>
    <linearGradient id="un_h" x1="0" y1="0" x2="0" y2="1"><stop offset="0" stop-color="#ffd54f"/><stop offset="1" stop-color="#ff9e3d"/></linearGradient>
    <linearGradient id="un_m" x1="0" y1="0" x2="1" y2="1"><stop offset="0" stop-color="#ff8fb0"/><stop offset="0.5" stop-color="#ffd36a"/><stop offset="1" stop-color="#7ec8ff"/></linearGradient>
  </defs>
  <ellipse cx="60" cy="111" rx="30" ry="6" fill="#000" opacity="0.16"/>
  <!-- body -->
  <path d="M38 100 q-6 -34 22 -38 q28 2 22 38 z" fill="url(#un_b)" stroke="#c9bfe0" stroke-width="2"/>
  <!-- head -->
  <circle cx="60" cy="50" r="21" fill="url(#un_b)" stroke="#c9bfe0" stroke-width="2"/>
  <path d="M48 36 q-6 -2 -8 -10 q8 0 10 8z" fill="url(#un_b)" stroke="#c9bfe0" stroke-width="2"/>
  <path d="M72 36 q6 -2 8 -10 q-8 0 -10 8z" fill="url(#un_b)" stroke="#c9bfe0" stroke-width="2"/>
  <!-- horn -->
  <path d="M60 30 L55 8 L60 30 L65 8 Z" fill="url(#un_h)" stroke="#e08e1a" stroke-width="1.5"/>
  <path d="M60 30 L60 9" stroke="#e08e1a" stroke-width="1" opacity="0.5"/>
  <!-- mane -->
  <path d="M44 30 q-12 6 -8 22 q8 -2 8 -10 q-2 10 4 16 q6 -6 4 -16 q4 8 10 6 q-4 -10 -8 -16z" fill="url(#un_m)" stroke="#d98fb0" stroke-width="1"/>
  <!-- face -->
  <ellipse cx="54" cy="50" rx="3" ry="4.5" fill="#5b4a7a"/><ellipse cx="68" cy="50" rx="3" ry="4.5" fill="#5b4a7a"/>
  <circle cx="53" cy="48.5" r="1.2" fill="#fff"/><circle cx="67" cy="48.5" r="1.2" fill="#fff"/>
  <ellipse cx="50" cy="60" rx="4" ry="3" fill="#ffc0d0" opacity="0.7"/><ellipse cx="70" cy="60" rx="4" ry="3" fill="#ffc0d0" opacity="0.7"/>
  <path d="M58 60 q2 2 4 0" fill="none" stroke="#9a86c0" stroke-width="1.4" stroke-linecap="round"/>
  <ellipse cx="50" cy="44" rx="5" ry="7" fill="#fff" opacity="0.4"/>
</svg>
