<svg xmlns="http://www.w3.org/2000/svg" viewBox="0 0 128 128">
  <defs>
    <linearGradient id="bo" x1="0" y1="0" x2="0" y2="1">
      <stop offset="0" stop-color="#7c5a3a"/><stop offset="1" stop-color="#523a22"/>
    </linearGradient>
  </defs>
  <ellipse cx="64" cy="115" rx="40" ry="8" fill="#000" opacity="0.18"/>
  <rect x="44" y="92" width="9" height="20" rx="3" fill="#3f2c19"/>
  <rect x="74" y="92" width="9" height="20" rx="3" fill="#3f2c19"/>
  <ellipse cx="70" cy="78" rx="40" ry="30" fill="url(#bo)" stroke="#2f2012" stroke-width="3"/>
  <path d="M44 56 l5 -12 4 10 4 -12 4 11 5 -10 3 12 Z" fill="#3f2c19"/>
  <path d="M14 78 C 10 60, 26 50, 40 56 C 50 60, 52 80, 44 92 C 32 100, 18 94, 14 78 Z" fill="url(#bo)" stroke="#2f2012" stroke-width="3"/>
  <path d="M38 54 l 10 -10 2 14 Z" fill="#5b3f26" stroke="#2f2012" stroke-width="2"/>
  <ellipse cx="20" cy="80" rx="11" ry="9" fill="#caa07a" stroke="#2f2012" stroke-width="2.5"/>
  <circle cx="17" cy="80" r="2" fill="#2f2012"/><circle cx="24" cy="80" r="2" fill="#2f2012"/>
  <path d="M16 88 q -3 8 4 9" fill="#f3ead0" stroke="#b8a87e" stroke-width="1.5"/>
  <path d="M28 88 q 3 8 -4 9" fill="#f3ead0" stroke="#b8a87e" stroke-width="1.5"/>
  <circle cx="36" cy="70" r="4.5" fill="#fff"/><circle cx="37" cy="71" r="2.6" fill="#1c1107"/>
  <path d="M30 64 l 12 3" stroke="#2f2012" stroke-width="3" stroke-linecap="round"/>
</svg>
