<svg xmlns="http://www.w3.org/2000/svg" viewBox="0 0 128 128">
  <defs>
    <linearGradient id="go" x1="0" y1="0" x2="0" y2="1">
      <stop offset="0" stop-color="#8d8475"/><stop offset="1" stop-color="#5c5447"/>
    </linearGradient>
  </defs>
  <ellipse cx="64" cy="118" rx="44" ry="8" fill="#000" opacity="0.2"/>
  <rect x="8" y="60" width="20" height="40" rx="8" fill="url(#go)" stroke="#3e382e" stroke-width="3"/>
  <rect x="100" y="60" width="20" height="40" rx="8" fill="url(#go)" stroke="#3e382e" stroke-width="3"/>
  <rect x="28" y="34" width="72" height="80" rx="12" fill="url(#go)" stroke="#3e382e" stroke-width="3.5"/>
  <rect x="42" y="56" width="44" height="34" rx="6" fill="#2f2a22" stroke="#1d1a14" stroke-width="2"/>
  <rect x="56" y="86" width="16" height="8" rx="2" fill="#7a5a3a"/>
  <path d="M62 94 q 2 8 0 12" stroke="#6f4423" stroke-width="3" fill="none"/>
  <circle cx="52" cy="48" r="6" fill="#ffd54f"/><circle cx="76" cy="48" r="6" fill="#ffd54f"/>
  <circle cx="52" cy="48" r="2.5" fill="#fff"/><circle cx="76" cy="48" r="2.5" fill="#fff"/>
  <g opacity="0.6" fill="none" stroke="#fff" stroke-width="3" stroke-linecap="round">
    <path d="M48 30 q 4 -6 0 -12"/><path d="M64 28 q 4 -6 0 -12"/><path d="M80 30 q 4 -6 0 -12"/>
  </g>
  <path d="M34 70 l 8 6 -4 8" stroke="#3e382e" stroke-width="1.6" fill="none" opacity="0.5"/>
</svg>
