<svg xmlns="http://www.w3.org/2000/svg" viewBox="0 0 64 64">
  <defs>
    <linearGradient id="crmg" x1="0" y1="0" x2="1" y2="1">
      <stop offset="0" stop-color="#9aa4b0"/><stop offset="0.5" stop-color="#68717e"/><stop offset="1" stop-color="#3b424c"/>
    </linearGradient>
    <radialGradient id="crcg" cx="0.4" cy="0.35" r="0.8">
      <stop offset="0" stop-color="#fff2b8"/><stop offset="0.5" stop-color="#ff9a2e"/><stop offset="1" stop-color="#d1450e"/>
    </radialGradient>
  </defs>
  <ellipse cx="32" cy="56" rx="18" ry="4.5" fill="#000" opacity="0.15"/>
  <g fill="url(#crmg)" stroke="#2b313a" stroke-width="2.2" stroke-linejoin="round">
    <path d="M27 5h10l1.6 7.4 5.6 2.4 6.2-4.2 7 7-4.2 6.2 2.4 5.6 7.4 1.6v10l-7.4 1.6-2.4 5.6 4.2 6.2-7 7-6.2-4.2-5.6 2.4L37 59H27l-1.6-7.4-5.6-2.4-6.2 4.2-7-7 4.2-6.2-2.4-5.6L1 32.8v-10l7.4-1.6 2.4-5.6-4.2-6.2 7-7 6.2 4.2 5.6-2.4z"
          transform="translate(0.6 -0.6) scale(0.9) translate(3.5 3.5)"/>
  </g>
  <circle cx="32" cy="31" r="11.5" fill="#2b313a"/>
  <circle cx="32" cy="31" r="8.5" fill="url(#crcg)" stroke="#9a3208" stroke-width="1.5"/>
  <circle cx="29" cy="28" r="2.6" fill="#fff8dc" opacity="0.75"/>
</svg>
