<svg xmlns="http://www.w3.org/2000/svg" viewBox="0 0 64 64">
  <defs>
    <radialGradient id="embg" cx="0.5" cy="0.72" r="0.72">
      <stop offset="0" stop-color="#fff8d0"/><stop offset="0.35" stop-color="#8fe6ff"/><stop offset="0.7" stop-color="#4a7de8"/><stop offset="1" stop-color="#2b2f8a"/>
    </radialGradient>
  </defs>
  <ellipse cx="32" cy="57" rx="14" ry="4" fill="#000" opacity="0.15"/>
  <path d="M32 4 C 34 16, 26 20, 26 29 C 26 33, 28 36, 32 36 C 36 36, 38 33, 38 29 C 38 26, 38.6 23.4, 40.4 21.6 C 45 27, 48 36, 48 43 A 16 16 0 0 1 16 43 C 16 30, 27 22, 32 4 Z"
        fill="url(#embg)" stroke="#242a70" stroke-width="2.5" stroke-linejoin="round"/>
  <path d="M32 32 C 36 38, 38 42, 38 46 A 6 6 0 0 1 26 46 C 26 41, 29 37, 32 32 Z" fill="#fff8d0" opacity="0.8"/>
  <circle cx="14" cy="22" r="2.2" fill="#8fe6ff" opacity="0.8"/>
  <circle cx="51" cy="16" r="1.6" fill="#8fe6ff" opacity="0.7"/>
  <circle cx="48" cy="27" r="1.2" fill="#fff8d0" opacity="0.7"/>
</svg>
