<svg xmlns="http://www.w3.org/2000/svg" viewBox="0 0 64 64">
  <defs>
    <linearGradient id="gb" x1="0" y1="0" x2="1" y2="1">
      <stop offset="0" stop-color="#fff0a8"/><stop offset="0.5" stop-color="#ffce3a"/><stop offset="1" stop-color="#c98a10"/>
    </linearGradient>
  </defs>
  <ellipse cx="34" cy="52" rx="16" ry="5" fill="#000" opacity="0.15"/>
  <!-- sparkles -->
  <path d="M12 14 l1.5 4 l4 1.5 l-4 1.5 l-1.5 4 l-1.5 -4 l-4 -1.5 l4 -1.5 z" fill="#fff6c8"/>
  <path d="M52 30 l1 2.6 l2.6 1 l-2.6 1 l-1 2.6 l-1 -2.6 l-2.6 -1 l2.6 -1 z" fill="#fff6c8"/>
  <g transform="rotate(-22 32 30)">
    <ellipse cx="32" cy="30" rx="16" ry="23" fill="url(#gb)" stroke="#9a6206" stroke-width="2.5"/>
    <path d="M32 9 C 27 21, 27 39, 32 51 C 37 39, 37 21, 32 9 Z" fill="#b8780c" opacity="0.85"/>
    <path d="M32 12 C 28 23, 28 37, 32 48" fill="none" stroke="#8a5a06" stroke-width="2"/>
    <ellipse cx="24" cy="20" rx="4.5" ry="9" fill="#fffbe0" opacity="0.6"/>
  </g>
</svg>
