<svg xmlns="http://www.w3.org/2000/svg" viewBox="0 0 64 64">
  <defs>
    <linearGradient id="mk" x1="0" y1="0" x2="0" y2="1">
      <stop offset="0" stop-color="#ffffff"/><stop offset="1" stop-color="#e6eef5"/>
    </linearGradient>
  </defs>
  <ellipse cx="32" cy="56" rx="16" ry="4.5" fill="#000" opacity="0.15"/>
  <!-- carton body -->
  <path d="M20 24 H44 V54 a2 2 0 0 1 -2 2 H22 a2 2 0 0 1 -2 -2 Z" fill="url(#mk)" stroke="#9fb2c4" stroke-width="2.2"/>
  <!-- roof -->
  <path d="M20 24 L32 12 L44 24 Z" fill="#f4f8fc" stroke="#9fb2c4" stroke-width="2.2"/>
  <path d="M32 12 L32 24" stroke="#cdd9e4" stroke-width="1.6"/>
  <!-- blue band + drop -->
  <rect x="20" y="34" width="24" height="9" fill="#5cc0f0" opacity="0.85"/>
  <path d="M32 36 c -3 4 -3 7 0 7 c 3 0 3 -3 0 -7 z" fill="#fff"/>
  <rect x="23" y="46" width="14" height="3" rx="1.5" fill="#b9c8d6"/>
</svg>
