<svg xmlns="http://www.w3.org/2000/svg" viewBox="0 0 64 64">
  <defs>
    <linearGradient id="sy" x1="0" y1="0" x2="0" y2="1">
      <stop offset="0" stop-color="#ffb86b"/><stop offset="1" stop-color="#c9621c"/>
    </linearGradient>
  </defs>
  <ellipse cx="32" cy="57" rx="14" ry="4.5" fill="#000" opacity="0.15"/>
  <!-- bottle body -->
  <path d="M22 30 a10 10 0 0 1 20 0 V52 a4 4 0 0 1 -4 4 H26 a4 4 0 0 1 -4 -4 Z" fill="url(#sy)" stroke="#8a3d0e" stroke-width="2.4"/>
  <!-- neck + pump -->
  <rect x="28" y="16" width="8" height="12" fill="#caa27a" stroke="#8a3d0e" stroke-width="2"/>
  <rect x="25" y="10" width="14" height="7" rx="2" fill="#e8c49a" stroke="#8a3d0e" stroke-width="2"/>
  <rect x="38" y="11" width="9" height="4" rx="2" fill="#e8c49a" stroke="#8a3d0e" stroke-width="2"/>
  <!-- label + shine -->
  <rect x="25" y="36" width="14" height="13" rx="2" fill="#fff7ec" opacity="0.92"/>
  <path d="M28 39 q4 6 8 0" fill="none" stroke="#c9621c" stroke-width="2" stroke-linecap="round"/>
  <ellipse cx="27" cy="34" rx="2.5" ry="6" fill="#fff" opacity="0.35"/>
</svg>
